<svg width="24" height="24" viewBox="0 0 24 24" fill="none" xmlns="http://www.w3.org/2000/svg"><path fill-rule="evenodd" clip-rule="evenodd" d="M12 21C16.9706 21 21 16.9706 21 12C21 7.02944 16.9706 3 12 3C7.02944 3 3 7.02944 3 12C3 16.9706 7.02944 21 12 21ZM8.46504 9.87886C8.07452 9.48834 8.07452 8.85517 8.46504 8.46465C8.85557 8.07412 9.48873 8.07412 9.87925 8.46465L12.0004 10.5858L14.1209 8.4652C14.5114 8.07467 15.1446 8.07467 15.5351 8.4652C15.9257 8.85572 15.9257 9.48889 15.5351 9.87941L13.4146 12L15.5358 14.1212C15.9263 14.5117 15.9263 15.1449 15.5358 15.5354C15.1453 15.9259 14.5121 15.9259 14.1216 15.5354L12.0004 13.4142L9.87922 15.5353C9.4887 15.9258 8.85553 15.9258 8.46501 15.5353C8.07448 15.1448 8.07448 14.5116 8.46501 14.1211L10.5861 12L8.46504 9.87886Z" fill="#52656D"/></svg>